<?xml version="1.0" encoding="utf-8"?>
<!-- Generator: Adobe Illustrator 24.2.1, SVG Export Plug-In . SVG Version: 6.00 Build 0)  -->
<svg version="1.1" id="Capa_1" xmlns="http://www.w3.org/2000/svg" xmlns:xlink="http://www.w3.org/1999/xlink" x="0px" y="0px"
	 width="1000px" height="1000px" viewBox="0 0 1000 1000" style="enable-background:new 0 0 1000 1000;" xml:space="preserve">
<style type="text/css">
	.st0{fill:url(#SVGID_1_);stroke:#1D1D1B;stroke-width:2;stroke-linecap:round;stroke-linejoin:round;stroke-miterlimit:10;}
</style>
<linearGradient id="SVGID_1_" gradientUnits="userSpaceOnUse" x1="500" y1="-0.0463" x2="500" y2="1351.0133">
	<stop  offset="0" style="stop-color:#8CC541"/>
	<stop  offset="0.2969" style="stop-color:#37C2D7"/>
	<stop  offset="0.3327" style="stop-color:#4CB5C7"/>
	<stop  offset="0.407" style="stop-color:#83949F"/>
	<stop  offset="0.5125" style="stop-color:#DB5F5F"/>
	<stop  offset="0.5352" style="stop-color:#EF5351"/>
	<stop  offset="0.5496" style="stop-color:#ED4D53"/>
	<stop  offset="0.6266" style="stop-color:#E2325B"/>
	<stop  offset="0.6945" style="stop-color:#DB2160"/>
	<stop  offset="0.7458" style="stop-color:#D91B62"/>
</linearGradient>
<path class="st0" d="M893.19,399.54C893.19,182.39,717.15,6.35,500,6.35c-217.15,0-393.19,176.04-393.19,393.19
	c0,99.24,36.85,189.83,97.5,259.01h-0.14l264.13,307.03c22.45,30.61,30.49,27.99,30.49,27.99c8.03,1.75,32.49-27.99,32.49-27.99
	l264.53-307.03h-0.14C856.34,589.37,893.19,498.78,893.19,399.54z M500,589.66c-131.16,0-237.49-106.33-237.49-237.49
	S368.84,114.69,500,114.69s237.49,106.33,237.49,237.49S631.16,589.66,500,589.66z"/>
</svg>
